<mxfile host="app.diagrams.net" agent="Mozilla/5.0 (X11; Linux x86_64) AppleWebKit/537.36 (KHTML, like Gecko) Chrome/139.0.0.0 Safari/537.36" version="28.1.1">
  <diagram name="Page-1" id="r9cs2UvgUWaEHflRgWNe">
    <mxGraphModel dx="2276" dy="2999" grid="1" gridSize="10" guides="1" tooltips="1" connect="1" arrows="1" fold="1" page="1" pageScale="1" pageWidth="850" pageHeight="1100" math="0" shadow="0">
      <root>
        <mxCell id="0" />
        <mxCell id="1" parent="0" />
        <mxCell id="WZ_zsEBXoUyCOogCr5SI-1" style="edgeStyle=orthogonalEdgeStyle;rounded=0;orthogonalLoop=1;jettySize=auto;html=1;entryX=0.5;entryY=0;entryDx=0;entryDy=0;" parent="1" source="WZ_zsEBXoUyCOogCr5SI-4" target="WZ_zsEBXoUyCOogCr5SI-8" edge="1">
          <mxGeometry relative="1" as="geometry" />
        </mxCell>
        <mxCell id="WZ_zsEBXoUyCOogCr5SI-2" style="edgeStyle=orthogonalEdgeStyle;rounded=0;orthogonalLoop=1;jettySize=auto;html=1;" parent="1" source="WZ_zsEBXoUyCOogCr5SI-4" target="WZ_zsEBXoUyCOogCr5SI-15" edge="1">
          <mxGeometry relative="1" as="geometry" />
        </mxCell>
        <mxCell id="WZ_zsEBXoUyCOogCr5SI-3" style="edgeStyle=orthogonalEdgeStyle;rounded=0;orthogonalLoop=1;jettySize=auto;html=1;" parent="1" source="WZ_zsEBXoUyCOogCr5SI-4" target="WZ_zsEBXoUyCOogCr5SI-22" edge="1">
          <mxGeometry relative="1" as="geometry" />
        </mxCell>
        <mxCell id="WZ_zsEBXoUyCOogCr5SI-4" value="Super Admin" style="rounded=0;whiteSpace=wrap;html=1;" parent="1" vertex="1">
          <mxGeometry x="1040" y="-2050" width="120" height="60" as="geometry" />
        </mxCell>
        <mxCell id="WZ_zsEBXoUyCOogCr5SI-5" style="edgeStyle=orthogonalEdgeStyle;rounded=0;orthogonalLoop=1;jettySize=auto;html=1;entryX=0.5;entryY=0;entryDx=0;entryDy=0;" parent="1" source="WZ_zsEBXoUyCOogCr5SI-8" target="WZ_zsEBXoUyCOogCr5SI-11" edge="1">
          <mxGeometry relative="1" as="geometry" />
        </mxCell>
        <mxCell id="WZ_zsEBXoUyCOogCr5SI-6" style="edgeStyle=orthogonalEdgeStyle;rounded=0;orthogonalLoop=1;jettySize=auto;html=1;" parent="1" source="WZ_zsEBXoUyCOogCr5SI-8" target="WZ_zsEBXoUyCOogCr5SI-10" edge="1">
          <mxGeometry relative="1" as="geometry" />
        </mxCell>
        <mxCell id="WZ_zsEBXoUyCOogCr5SI-7" style="edgeStyle=orthogonalEdgeStyle;rounded=0;orthogonalLoop=1;jettySize=auto;html=1;" parent="1" source="WZ_zsEBXoUyCOogCr5SI-8" target="WZ_zsEBXoUyCOogCr5SI-9" edge="1">
          <mxGeometry relative="1" as="geometry" />
        </mxCell>
        <mxCell id="WZ_zsEBXoUyCOogCr5SI-8" value="Admin 1" style="rounded=0;whiteSpace=wrap;html=1;" parent="1" vertex="1">
          <mxGeometry x="540" y="-1810" width="120" height="60" as="geometry" />
        </mxCell>
        <mxCell id="WZ_zsEBXoUyCOogCr5SI-9" value="Sub Admin 3" style="rounded=0;whiteSpace=wrap;html=1;" parent="1" vertex="1">
          <mxGeometry x="690" y="-1600" width="120" height="60" as="geometry" />
        </mxCell>
        <mxCell id="WZ_zsEBXoUyCOogCr5SI-10" value="Sub Admin 1" style="rounded=0;whiteSpace=wrap;html=1;" parent="1" vertex="1">
          <mxGeometry x="390" y="-1600" width="120" height="60" as="geometry" />
        </mxCell>
        <mxCell id="WZ_zsEBXoUyCOogCr5SI-11" value="Sub Admin 2" style="rounded=0;whiteSpace=wrap;html=1;" parent="1" vertex="1">
          <mxGeometry x="540" y="-1600" width="120" height="60" as="geometry" />
        </mxCell>
        <mxCell id="WZ_zsEBXoUyCOogCr5SI-12" style="edgeStyle=orthogonalEdgeStyle;rounded=0;orthogonalLoop=1;jettySize=auto;html=1;entryX=0.5;entryY=0;entryDx=0;entryDy=0;" parent="1" source="WZ_zsEBXoUyCOogCr5SI-15" target="WZ_zsEBXoUyCOogCr5SI-18" edge="1">
          <mxGeometry relative="1" as="geometry" />
        </mxCell>
        <mxCell id="WZ_zsEBXoUyCOogCr5SI-13" style="edgeStyle=orthogonalEdgeStyle;rounded=0;orthogonalLoop=1;jettySize=auto;html=1;" parent="1" source="WZ_zsEBXoUyCOogCr5SI-15" target="WZ_zsEBXoUyCOogCr5SI-17" edge="1">
          <mxGeometry relative="1" as="geometry" />
        </mxCell>
        <mxCell id="WZ_zsEBXoUyCOogCr5SI-14" style="edgeStyle=orthogonalEdgeStyle;rounded=0;orthogonalLoop=1;jettySize=auto;html=1;" parent="1" source="WZ_zsEBXoUyCOogCr5SI-15" target="WZ_zsEBXoUyCOogCr5SI-16" edge="1">
          <mxGeometry relative="1" as="geometry" />
        </mxCell>
        <mxCell id="WZ_zsEBXoUyCOogCr5SI-15" value="Admin 2" style="rounded=0;whiteSpace=wrap;html=1;" parent="1" vertex="1">
          <mxGeometry x="1040" y="-1800" width="120" height="60" as="geometry" />
        </mxCell>
        <mxCell id="WZ_zsEBXoUyCOogCr5SI-16" value="Sub Admin 3" style="rounded=0;whiteSpace=wrap;html=1;" parent="1" vertex="1">
          <mxGeometry x="1190" y="-1600" width="120" height="60" as="geometry" />
        </mxCell>
        <mxCell id="WZ_zsEBXoUyCOogCr5SI-17" value="Sub Admin 1" style="rounded=0;whiteSpace=wrap;html=1;" parent="1" vertex="1">
          <mxGeometry x="890" y="-1600" width="120" height="60" as="geometry" />
        </mxCell>
        <mxCell id="WZ_zsEBXoUyCOogCr5SI-18" value="Sub Admin 2" style="rounded=0;whiteSpace=wrap;html=1;" parent="1" vertex="1">
          <mxGeometry x="1040" y="-1600" width="120" height="60" as="geometry" />
        </mxCell>
        <mxCell id="WZ_zsEBXoUyCOogCr5SI-19" style="edgeStyle=orthogonalEdgeStyle;rounded=0;orthogonalLoop=1;jettySize=auto;html=1;entryX=0.5;entryY=0;entryDx=0;entryDy=0;" parent="1" source="WZ_zsEBXoUyCOogCr5SI-22" target="WZ_zsEBXoUyCOogCr5SI-24" edge="1">
          <mxGeometry relative="1" as="geometry" />
        </mxCell>
        <mxCell id="WZ_zsEBXoUyCOogCr5SI-20" style="edgeStyle=orthogonalEdgeStyle;rounded=0;orthogonalLoop=1;jettySize=auto;html=1;" parent="1" source="WZ_zsEBXoUyCOogCr5SI-22" target="WZ_zsEBXoUyCOogCr5SI-23" edge="1">
          <mxGeometry relative="1" as="geometry" />
        </mxCell>
        <mxCell id="WZ_zsEBXoUyCOogCr5SI-26" style="edgeStyle=orthogonalEdgeStyle;rounded=0;orthogonalLoop=1;jettySize=auto;html=1;entryX=0.5;entryY=0;entryDx=0;entryDy=0;" parent="1" source="WZ_zsEBXoUyCOogCr5SI-22" target="WZ_zsEBXoUyCOogCr5SI-25" edge="1">
          <mxGeometry relative="1" as="geometry" />
        </mxCell>
        <mxCell id="WZ_zsEBXoUyCOogCr5SI-22" value="Admin 2" style="rounded=0;whiteSpace=wrap;html=1;" parent="1" vertex="1">
          <mxGeometry x="1540" y="-1800" width="120" height="60" as="geometry" />
        </mxCell>
        <mxCell id="WZ_zsEBXoUyCOogCr5SI-23" value="Sub Admin 1" style="rounded=0;whiteSpace=wrap;html=1;" parent="1" vertex="1">
          <mxGeometry x="1390" y="-1600" width="120" height="60" as="geometry" />
        </mxCell>
        <mxCell id="WZ_zsEBXoUyCOogCr5SI-24" value="Sub Admin 2" style="rounded=0;whiteSpace=wrap;html=1;" parent="1" vertex="1">
          <mxGeometry x="1540" y="-1600" width="120" height="60" as="geometry" />
        </mxCell>
        <mxCell id="WZ_zsEBXoUyCOogCr5SI-25" value="Sub Admin 3" style="rounded=0;whiteSpace=wrap;html=1;" parent="1" vertex="1">
          <mxGeometry x="1690" y="-1600" width="120" height="60" as="geometry" />
        </mxCell>
        <mxCell id="WZ_zsEBXoUyCOogCr5SI-27" value="Admin and Sub Admin will follow factory design pattern.&lt;div&gt;Basically one schema and role for the admins and sub-admins.&lt;/div&gt;&lt;div&gt;Super Admin can create as many as they want.&lt;/div&gt;" style="rounded=1;whiteSpace=wrap;html=1;" parent="1" vertex="1">
          <mxGeometry x="-70" y="-2000" width="380" height="80" as="geometry" />
        </mxCell>
        <mxCell id="WZ_zsEBXoUyCOogCr5SI-28" value="Logs will follow singelton design pattern.&lt;div&gt;Basically means that only one single schema and instance and that will get updated every time so there are proper logs and updates of what happened.&lt;/div&gt;" style="rounded=1;whiteSpace=wrap;html=1;" parent="1" vertex="1">
          <mxGeometry x="-70" y="-1880" width="380" height="80" as="geometry" />
        </mxCell>
        <mxCell id="WZ_zsEBXoUyCOogCr5SI-29" value="All the routes will be protected by Auth middleware.&lt;div&gt;And only people allowed will be able to access pages and there data.&lt;/div&gt;" style="rounded=1;whiteSpace=wrap;html=1;" parent="1" vertex="1">
          <mxGeometry x="-70" y="-1760" width="380" height="80" as="geometry" />
        </mxCell>
        <mxCell id="WZ_zsEBXoUyCOogCr5SI-30" value="&lt;blockquote style=&quot;margin: 0 0 0 40px; border: none; padding: 0px;&quot;&gt;User - {&lt;div style=&quot;text-align: center;&quot;&gt;&lt;span style=&quot;background-color: transparent; color: light-dark(rgb(0, 0, 0), rgb(255, 255, 255));&quot;&gt;&amp;nbsp; all_old_data&lt;/span&gt;&lt;/div&gt;&lt;div style=&quot;text-align: center;&quot;&gt;&lt;span style=&quot;white-space: pre;&quot;&gt;&#x9;&lt;/span&gt;roles: [ super_admin ,admin ,sub_admin ,user ]&lt;/div&gt;&lt;div style=&quot;text-align: center;&quot;&gt;&lt;span style=&quot;white-space: pre;&quot;&gt;&#x9;&lt;/span&gt;pages_allowed : [ hackathons ,jobs ,internships ,events&amp;nbsp; etc...&amp;nbsp;&lt;/div&gt;&lt;div&gt;}&lt;/div&gt;&lt;div&gt;&lt;br&gt;&lt;/div&gt;&lt;div&gt;Logs - {&lt;/div&gt;&lt;div style=&quot;text-align: center;&quot;&gt;&lt;span style=&quot;white-space: pre;&quot;&gt;&#x9;&lt;/span&gt;userId&lt;/div&gt;&lt;div style=&quot;text-align: center;&quot;&gt;&lt;span style=&quot;white-space: pre;&quot;&gt;&#x9;&lt;/span&gt;updateDetails&lt;/div&gt;&lt;div&gt;}&lt;/div&gt;&lt;/blockquote&gt;" style="rounded=1;whiteSpace=wrap;html=1;align=left;" parent="1" vertex="1">
          <mxGeometry x="-70" y="-1430" width="370" height="180" as="geometry" />
        </mxCell>
      </root>
    </mxGraphModel>
  </diagram>
</mxfile>
